<svg width="100" height="100" viewBox="0 0 100 100" xmlns="http://www.w3.org/2000/svg">
  <!-- Center circle -->
  <circle cx="50" cy="50" r="15" fill="#42c8c0" stroke="#1e2d3d" stroke-width="3"/>
  
  <!-- Nodes and connecting lines -->
  <g stroke="#1e2d3d" stroke-width="3">
    <!-- Top node -->
    <line x1="50" y1="35" x2="50" y2="20" />
    <circle cx="50" cy="12" r="10" fill="#42c8c0" />
    
    <!-- Top right node -->
    <line x1="61" y1="39" x2="76" y2="24" />
    <circle cx="82" cy="18" r="10" fill="#42c8c0" />
    
    <!-- Right node -->
    <line x1="65" y1="50" x2="80" y2="50" />
    <circle cx="88" cy="50" r="10" fill="#42c8c0" />
    
    <!-- Bottom right node -->
    <line x1="61" y1="61" x2="76" y2="76" />
    <circle cx="82" cy="82" r="10" fill="#42c8c0" />
    
    <!-- Bottom node -->
    <line x1="50" y1="65" x2="50" y2="80" />
    <circle cx="50" cy="88" r="10" fill="#42c8c0" />
    
    <!-- Bottom left node -->
    <line x1="39" y1="61" x2="24" y2="76" />
    <circle cx="18" cy="82" r="10" fill="#42c8c0" />
    
    <!-- Left node -->
    <line x1="35" y1="50" x2="20" y2="50" />
    <circle cx="12" cy="50" r="10" fill="#42c8c0" />
    
    <!-- Top left node -->
    <line x1="39" y1="39" x2="24" y2="24" />
    <circle cx="18" cy="18" r="10" fill="#42c8c0" />
  </g>
  
  <!-- Small dots -->
  <circle cx="68" cy="25" r="3" fill="#42c8c0" stroke="#1e2d3d" stroke-width="1" />
  <circle cx="32" cy="75" r="3" fill="#42c8c0" stroke="#1e2d3d" stroke-width="1" />
  <circle cx="75" cy="68" r="3" fill="#42c8c0" stroke="#1e2d3d" stroke-width="1" />
  <circle cx="25" cy="32" r="3" fill="#42c8c0" stroke="#1e2d3d" stroke-width="1" />
</svg> 