<?xml version="1.0" encoding="UTF-8"?>
<svg width="24px" height="24px" viewBox="0 0 24 24" version="1.1" xmlns="http://www.w3.org/2000/svg">
    <g stroke="none" stroke-width="1" fill="none" fill-rule="evenodd">
        <path d="M19,3 L5,3 C3.9,3 3,3.9 3,5 L3,19 C3,20.1 3.9,21 5,21 L19,21 C20.1,21 21,20.1 21,19 L21,5 C21,3.9 20.1,3 19,3 Z M9,17 L6.5,17 L6.5,10 L9,10 L9,17 Z M7.75,8.75 C6.9,8.75 6.25,8.1 6.25,7.25 C6.25,6.4 6.9,5.75 7.75,5.75 C8.6,5.75 9.25,6.4 9.25,7.25 C9.25,8.1 8.6,8.75 7.75,8.75 Z M18,17 L15.5,17 L15.5,13.25 C15.5,12.45 14.85,11.75 14.05,11.75 C13.25,11.75 12.5,12.35 12.5,13.25 L12.5,17 L10,17 L10,10 L12.5,10 L12.5,11.25 C12.9,10.55 13.85,10 14.55,10 C16.45,10 18,11.35 18,13.25 L18,17 Z" fill="#0077B5" fill-rule="nonzero"></path>
    </g>
</svg> 